<svg height="512pt" viewBox="0 0 512 512" width="512pt" xmlns="http://www.w3.org/2000/svg"><path d="m256 91c45.492188 0 86.742188 18.503906 116.617188 48.382812l63.382812-33.382812.230469-30.230469c-46.175781-46.171875-109.925781-75.769531-180.230469-75.769531l-30 43.5zm0 0" fill="#fdbf00"/><path d="m256 91v-91c-70.304688 0-134.054688 29.597656-180.230469 75.769531l.230469 60.230469 63.382812 3.382812c29.875-29.878906 71.125-48.382812 116.617188-48.382812zm0 0" fill="#ffda2d"/><path d="m139.382812 139.382812-63.613281-63.613281c-46.171875 46.175781-75.769531 109.925781-75.769531 180.230469l53.5 30 37.5-30c0-45.492188 18.503906-86.742188 48.382812-116.617188zm0 0" fill="#fdbf00"/><path d="m91 256h-91c0 70.304688 29.597656 134.054688 75.769531 180.230469l60.230469-30.230469 3.382812-33.382812c-29.878906-29.875-48.382812-71.125-48.382812-116.617188zm0 0" fill="#ffda2d"/><path d="m256 421c-45.492188 0-86.742188-18.503906-116.617188-48.382812l-63.613281 63.613281c46.175781 46.171875 109.925781 75.769531 180.230469 75.769531l30-38.75zm0 0" fill="#fdbf00"/><path d="m256 512c70.304688 0 134.054688-29.597656 180.230469-75.769531l-23.980469-53.980469-39.632812-9.632812c-29.875 29.878906-71.125 48.382812-116.617188 48.382812zm0 0" fill="#ff9100"/><path d="m512 256-43.5-30-47.5 30c0 45.492188-18.503906 86.742188-48.382812 116.617188l63.613281 63.613281c46.171875-46.175781 75.769531-109.925781 75.769531-180.230469zm0 0" fill="#fdbf00"/><path d="m421 256h91c0-70.304688-29.597656-134.054688-75.769531-180.230469l-63.613281 63.613281c29.878906 29.875 48.382812 71.125 48.382812 116.617188zm0 0" fill="#ff9100"/><path d="m256 76c-99.300781 0-180 80.699219-180 180s80.699219 180 180 180 180-80.699219 180-180-80.699219-180-180-180zm0 0" fill="#ff9100"/><path d="m436 256c0 99.300781-80.699219 180-180 180v-360c99.300781 0 180 80.699219 180 180zm0 0" fill="#dd7b05"/><path d="m346 256c0 3-.902344 6-2.699219 8.699219l-75 105c-3 3.898437-7.5 6.300781-12.300781 6.300781s-9.300781-2.402344-12.300781-6.300781l-75-105c-1.796875-2.699219-2.699219-5.699219-2.699219-8.699219zm0 0" fill="#fdbf00"/><path d="m346 256c0 3-.902344 6-2.699219 8.699219l-75 105c-3 3.898437-7.5 6.300781-12.300781 6.300781v-120zm0 0" fill="#ff9100"/><path d="m346 256-83.402344 43.5c-2.097656.898438-4.199218 1.5-6.597656 1.5s-4.5-.601562-6.597656-1.5l-83.402344-43.5c0-3 .902344-6 2.699219-8.699219l75-105c3-3.902343 7.5-6 12.300781-6s9.300781 2.097657 12.300781 6l75 105c1.796875 2.699219 2.699219 5.699219 2.699219 8.699219zm0 0" fill="#ffda2d"/><path d="m346 256-83.402344 43.5c-2.097656.898438-4.199218 1.5-6.597656 1.5v-164.699219c4.800781 0 9.300781 2.097657 12.300781 6l75 105c1.796875 2.699219 2.699219 5.699219 2.699219 8.699219zm0 0" fill="#fdbf00"/></svg>