<svg height="512" viewBox="0 0 64 64" width="512" xmlns="http://www.w3.org/2000/svg"><g id="Exchange"><path d="m32 62a30 30 0 1 1 30-30 30.034 30.034 0 0 1 -30 30zm0-58a28 28 0 1 0 28 28 28.032 28.032 0 0 0 -28-28z" fill="#ee8700"/><path d="m57.84 45.16a8.9 8.9 0 0 0 -5.84-2.16 9 9 0 0 0 -9 9 9.015 9.015 0 0 0 9 9 8.995 8.995 0 0 0 5.84-15.84z" fill="#ffd422"/><rect fill="#00ccb3" height="16" rx="2" width="30" x="17" y="24"/><circle cx="32" cy="32" fill="#ffd422" r="4"/><path d="m48 5a3.016 3.016 0 0 0 -2.5 1.33 3.067 3.067 0 0 0 -.5 1.67 3 3 0 0 0 5.5 1.66 3.059 3.059 0 0 0 .5-1.66 3 3 0 0 0 -3-3z" fill="#ff9811"/><path d="m16 53a2.987 2.987 0 0 0 -2.5 1.34 3.059 3.059 0 0 0 -.5 1.66 3.005 3.005 0 0 0 5.5 1.67 3.067 3.067 0 0 0 .5-1.67 3 3 0 0 0 -3-3z" fill="#ff9811"/><path d="m18.84 6.16a8.995 8.995 0 1 0 -12.68 12.68 8.9 8.9 0 0 0 5.84 2.16 9 9 0 0 0 9-9 8.9 8.9 0 0 0 -2.16-5.84z" fill="#ffd422"/><path d="m32 52a20.012 20.012 0 0 1 -18.5-27.619l-1.849-.762a22.012 22.012 0 0 0 20.349 30.381 22.242 22.242 0 0 0 4.142-.389l-.374-1.965a20.2 20.2 0 0 1 -3.768.354z" fill="#ee8700"/><path d="m37.732 51.167.572 1.916c.687-.2 1.367-.445 2.022-.713l-.759-1.851c-.594.243-1.212.461-1.835.648z" fill="#ee8700"/><path d="m55.264 30.935-1.264 1.183a22.008 22.008 0 0 0 -27.849-21.33l.533 1.928a20 20 0 0 1 25.307 19.462l-1.31-1.4-1.462 1.365 2.893 3.1a1 1 0 0 0 1.414.049l3.1-2.893z" fill="#ee8700"/><g fill="#00b39d"><path d="m22 31h-2v-3a1 1 0 0 1 1-1h3v2h-2z"/><path d="m44 31h-2v-2h-2v-2h3a1 1 0 0 1 1 1z"/><path d="m24 37h-3a1 1 0 0 1 -1-1v-3h2v2h2z"/><path d="m43 37h-3v-2h2v-2h2v3a1 1 0 0 1 -1 1z"/></g><path d="m13 11h-2a1 1 0 0 1 0-2h2a1 1 0 0 1 1 1h2a3 3 0 0 0 -3-3v-1h-2v1a3 3 0 0 0 0 6h2a1 1 0 0 1 0 2h-2a1 1 0 0 1 -1-1h-2a3 3 0 0 0 3 3v1h2v-1a3 3 0 0 0 0-6z" fill="#ed1c24"/><path d="m53 51h-2a1 1 0 0 1 0-2h2a1 1 0 0 1 1 1h2a3 3 0 0 0 -3-3v-1h-2v1a3 3 0 0 0 0 6h2a1 1 0 0 1 0 2h-2a1 1 0 0 1 -1-1h-2a3 3 0 0 0 3 3v1h2v-1a3 3 0 0 0 0-6z" fill="#ed1c24"/><path d="m12 22a10 10 0 1 1 10-10 10.011 10.011 0 0 1 -10 10zm0-18a8 8 0 1 0 8 8 8.009 8.009 0 0 0 -8-8z" fill="#ff9811"/><path d="m52 62a10 10 0 1 1 10-10 10.011 10.011 0 0 1 -10 10zm0-18a8 8 0 1 0 8 8 8.009 8.009 0 0 0 -8-8z" fill="#ff9811"/></g></svg>