<?xml version="1.0" encoding="iso-8859-1"?>
<!-- Generator: Adobe Illustrator 19.0.0, SVG Export Plug-In . SVG Version: 6.00 Build 0)  -->
<svg version="1.1" id="Capa_1" xmlns="http://www.w3.org/2000/svg" xmlns:xlink="http://www.w3.org/1999/xlink" x="0px" y="0px"
	 viewBox="0 0 512 512" style="enable-background:new 0 0 512 512;" xml:space="preserve">
<path style="fill:#D2E4FF;" d="M475.703,512H36.297C16.251,512,0,495.749,0,475.703V36.297C0,16.251,16.251,0,36.297,0h439.407
	C495.749,0,512,16.251,512,36.297v439.407C512,495.749,495.749,512,475.703,512z"/>
<path style="fill:#B6D7FF;" d="M475.703,0H454v210.235C454,347.305,342.431,458,205.362,458H0v17.703
	C0,495.749,16.251,512,36.297,512h439.407C495.749,512,512,495.749,512,475.703V36.297C512,16.251,495.749,0,475.703,0z"/>
<circle style="fill:#175BE7;" cx="255.65" cy="181.41" r="59.52"/>
<path style="fill:#6CA5FF;" d="M376.307,389H129.61c-4.403,0-7.61-3.428-7.61-7.831v-38.38C122,303.525,153.466,272,192.73,272
	h120.457C352.451,272,384,303.525,384,342.788v38.38C384,385.572,380.71,389,376.307,389z"/>
<g>
	<rect x="169" y="345" style="fill:#175BE7;" width="17" height="44"/>
	<rect x="320" y="345" style="fill:#175BE7;" width="16" height="44"/>
</g>
<g>
</g>
<g>
</g>
<g>
</g>
<g>
</g>
<g>
</g>
<g>
</g>
<g>
</g>
<g>
</g>
<g>
</g>
<g>
</g>
<g>
</g>
<g>
</g>
<g>
</g>
<g>
</g>
<g>
</g>
</svg>
