<?xml version="1.0" encoding="iso-8859-1"?>
<!-- Generator: Adobe Illustrator 19.0.0, SVG Export Plug-In . SVG Version: 6.00 Build 0)  -->
<svg version="1.1" id="Capa_1" xmlns="http://www.w3.org/2000/svg" xmlns:xlink="http://www.w3.org/1999/xlink" x="0px" y="0px"
	 viewBox="0 0 487.92 487.92" style="enable-background:new 0 0 487.92 487.92;" xml:space="preserve">
<g>
	<path style="fill:#BC2E49;" d="M264.84,192c15.12-6.96,28-18.16,37.04-32h86.08c17.68,0,32,14.32,32,32v64c0-17.68-14.32-32-32-32
		h-320c-17.68,0-32-14.32-32-32s14.32-32,32-32h86.4c9.048,13.84,21.92,25.04,37.048,32L264.84,192L264.84,192z"/>
	<path style="fill:#BC2E49;" d="M435.96,271.92c8.808,0,16,7.192,16,16c0,8.872-7.192,16-16,16h-16v-32H435.96z"/>
</g>
<path style="fill:#FFCE54;" d="M371.96,343.92c8.808,0,16,7.192,16,16c0,8.872-7.192,16-16,16c-8.872,0-16-7.128-16-16
	C355.96,351.12,363.088,343.92,371.96,343.92z"/>
<path style="fill:#ED5565;" d="M435.96,303.92c8.808,0,16-7.128,16-16v112c0,8.872-7.192,16-16,16h-16h-80l-40-54l40-58h80H435.96z
	 M387.96,359.92c0-8.808-7.192-16-16-16c-8.872,0-16,7.192-16,16c0,8.872,7.128,16,16,16
	C380.768,375.92,387.96,368.792,387.96,359.92z"/>
<path style="fill:#DA4453;" d="M35.96,192c0,17.68,14.32,32,32,32h320c17.68,0,32,14.32,32,32v15.92v32h-80l-40,58l40,54h80v40
	c0,17.76-14.32,32-32,32h-320c-17.68,0-32-14.24-32-32V192z"/>
<g>
	<path style="fill:#D3374E;" d="M387.96,455.92c0,17.76-14.32,32-32,32h32c17.68,0,32-14.24,32-32v-40h-32V455.92z"/>
	<path style="fill:#D3374E;" d="M387.96,224h-32c17.68,0,32,14.32,32,32v15.92v32h32v-32V256C419.96,238.32,405.64,224,387.96,224z"
		/>
</g>
<path style="fill:#DA4453;" d="M435.96,303.92h-16v34.752v61.248v16h16c8.808,0,16-7.128,16-16v-112
	C451.96,296.792,444.768,303.92,435.96,303.92z"/>
<path style="fill:#A52043;" d="M363.96,199.984h-272c-4.424,0-8-3.576-8-8s3.576-8,8-8h272c4.424,0,8,3.576,8,8
	S368.384,199.984,363.96,199.984z"/>
<path style="fill:#FFCE54;" d="M316.128,88c0,48.64-39.36,88-88,88c-48.56,0-88-39.36-88-88s39.44-88,88-88
	C276.768,0,316.128,39.36,316.128,88z"/>
<path style="fill:#F6BB42;" d="M228.128,0c-5.472,0-10.8,0.56-15.992,1.52c40.976,7.52,71.992,43.312,71.992,86.48
	s-31.016,78.952-71.992,86.48c5.192,0.96,10.52,1.52,15.992,1.52c48.64,0,88-39.36,88-88S276.768,0,228.128,0z"/>
<g>
	<path style="fill:#EDAB37;" d="M140.128,88c0,48.64,39.44,88,88,88c48.64,0,88-39.36,88-88v32c0,17.76-5.28,34.24-14.24,48
		c-9.04,13.84-21.92,25.04-37.04,32h-73.44c-15.128-6.96-28-18.16-37.048-32c-8.952-13.76-14.232-30.24-14.232-48V88z"/>
	<path style="fill:#EDAB37;" d="M255.192,78.408c3.064-4.024,4.952-8.992,4.952-14.432c0-13.224-10.76-23.992-23.984-23.992h-8.016
		c0-4.424-3.576-8-8-8s-8,3.576-8,8h-16c-4.424,0-8,3.576-8,8s3.576,8,8,8v64c-4.424,0-8,3.576-8,8c0,4.424,3.576,8,8,8h16
		c0,4.424,3.576,8,8,8s8-3.576,8-8h8c17.648,0,32-14.352,32-32C268.144,93.488,263.016,84.248,255.192,78.408z M236.16,55.984
		c4.408,0,7.984,3.584,7.984,7.992s-3.576,7.992-7.984,7.992h-24.016V55.984H236.16z M236.144,119.984h-24V87.968h24
		c8.824,0,16,7.184,16,16.016C252.144,112.8,244.968,119.984,236.144,119.984z"/>
</g>
<g>
</g>
<g>
</g>
<g>
</g>
<g>
</g>
<g>
</g>
<g>
</g>
<g>
</g>
<g>
</g>
<g>
</g>
<g>
</g>
<g>
</g>
<g>
</g>
<g>
</g>
<g>
</g>
<g>
</g>
</svg>
